# This file uses centimeters as units for non-parametric coordinates.

mtllib Car.mtl
g default
v -0.997249 1.567559 -0.027873
v 0.997249 1.567559 -0.027873
v -0.997249 0.775159 1.801037
v 0.997249 0.775159 1.801037
v 0.997250 0.775158 0.034692
v 0.997250 0.775158 -1.310390
v -0.997250 0.775158 -1.310390
v -0.997250 0.775158 0.034692
v -0.997250 0.000000 -0.975255
v 0.997250 0.000000 -0.975255
v 0.997250 0.775158 -1.050000
v -0.997250 0.775158 -1.050000
v -0.997249 1.568831 -0.501259
v 0.997249 1.568831 -0.501259
v 0.997250 0.775158 -0.537310
v 0.997249 0.000000 -0.599745
v -0.997249 0.000000 -0.599745
v -0.997250 0.775158 -0.537310
v -0.997249 1.524208 0.424543
v 0.997249 1.524208 0.424543
v 0.997250 0.775158 0.638642
v 0.997250 0.000000 0.907484
v -0.997250 0.000000 0.907484
v -0.997250 0.775158 0.638642
v 0.997250 0.775158 1.075232
v 0.997250 0.000000 1.271120
v -0.997250 0.000000 1.271119
v -0.997250 0.775158 1.075232
v -0.997249 0.427805 1.844172
v 0.997249 0.427805 1.844172
v 0.997250 0.242008 1.366471
v 0.997249 0.242007 0.836053
v 0.997248 0.242007 0.031289
v 0.997249 0.242007 -0.525000
v 0.997250 0.242008 -1.050000
v 0.997250 0.427805 -1.340871
v -0.997250 0.427805 -1.340871
v -0.997250 0.242008 -1.050000
v -0.997249 0.242007 -0.525000
v -0.997248 0.242007 0.031289
v -0.997249 0.242007 0.836053
v -0.997250 0.242008 1.366471
v 0.997250 1.236200 -0.955606
v 0.997250 1.236201 -0.504456
v 0.997250 1.236201 0.041380
v 0.997250 1.236200 0.424542
v 0.997249 1.249321 0.845114
v -0.997249 1.249321 0.845114
v -0.997250 1.236200 0.424542
v -0.997250 1.236201 0.041380
v -0.997250 1.236201 -0.504456
v -0.997250 1.236200 -0.955606
v 0.000000 0.403301 -1.390619
v 0.000000 0.759172 -1.390619
v 0.000000 1.598126 -0.525000
v 0.000000 1.598126 0.000000
v 0.000000 1.598126 0.450000
v 0.000000 0.764546 1.949209
v 0.000000 0.389369 1.949209
v -0.494249 0.000000 1.271119
v -0.494249 0.000000 0.907484
v -0.494249 0.000000 -0.599745
v -0.494249 -0.000000 -0.975255
v -0.500000 0.403301 -1.390619
v -0.500000 0.759172 -1.390619
v -0.495755 1.596185 -0.527454
v -0.500000 1.598126 0.000000
v -0.500000 1.598126 0.450000
v -0.500000 0.764546 1.949209
v -0.500000 0.389369 1.949209
v 0.494249 0.000000 0.907484
v 0.494249 0.000000 1.271120
v 0.500000 0.389369 1.949209
v 0.500000 0.764546 1.949209
v 0.500000 1.598126 0.450000
v 0.500000 1.598126 0.000000
v 0.495755 1.596185 -0.527454
v 0.500000 0.759172 -1.390619
v 0.500000 0.403301 -1.390619
v 0.494249 0.000000 -0.975255
v 0.494249 0.000000 -0.599745
v -0.500000 1.232555 -0.987252
v 0.000000 1.232556 -0.987253
v 0.500000 1.232555 -0.987253
v 0.000000 1.255191 0.975000
v 0.500000 1.255191 0.975000
v -0.500000 1.255191 0.975000
v 0.494249 0.255191 -1.050000
v -0.000000 0.255191 -1.050000
v -0.000000 0.403301 -1.390619
v -0.494249 0.255191 -1.050000
v -0.494249 0.255191 -0.525000
v -0.480866 0.235658 0.029384
v -0.494249 0.255191 0.836053
v 0.000000 0.255191 -0.525000
v 0.000000 0.235658 0.029384
v 0.000000 0.255191 0.836053
v 0.494249 0.255191 -0.525000
v 0.480866 0.235658 0.029384
v 0.494249 0.255191 0.836053
v -0.494249 0.255191 1.316574
v 0.000000 0.255191 1.316574
v 0.494249 0.255191 1.316574
v -0.997250 0.427806 1.269815
v -0.997250 0.427806 0.911548
v -0.997250 0.427806 0.037372
v -0.997250 0.427806 -0.579149
v -0.997250 0.427805 -0.970451
v 0.997250 0.427806 1.269815
v 0.997250 0.427806 0.911548
v 0.997250 0.427806 0.037372
v 0.997250 0.427806 -0.579149
v 0.997250 0.427805 -0.970451
v 0.997250 0.995496 -0.999391
v 0.997250 0.995496 -0.518698
v 0.997250 0.995496 0.028735
v 0.997250 0.995496 0.545566
v 0.997249 0.995496 0.921946
v -0.997250 0.995496 -0.999391
v -0.997250 0.995496 -0.518698
v -0.997250 0.995496 0.028735
v -0.997250 0.995496 0.545566
v -0.997249 0.995496 0.921946
v -0.997249 0.995496 1.201707
v -0.500000 1.009869 1.269326
v 0.500000 1.009869 1.269326
v 0.997249 0.995496 1.201707
v -0.997250 0.995496 -1.143229
v 0.997250 0.995496 -1.143229
v 0.500000 0.982318 -1.200478
v 0.000000 0.984255 -1.198828
v -0.500000 0.982318 -1.200478
v 0.000000 1.009869 1.269326
vt 0.647495 0.253973
vt 0.353472 0.255828
vt 0.649135 0.486828
vt 0.253491 0.447659
vt 0.237511 0.272710
vt 0.350049 0.060521
vt 0.225313 0.139436
vt 0.774085 0.135888
vt 0.648519 0.058757
vt 0.763666 0.269313
vt 0.886680 0.178126
vt 0.113292 0.183175
vt 0.227709 0.165219
vt 0.772034 0.161701
vt 0.648881 0.206167
vt 0.351460 0.208020
vt 0.232446 0.216000
vt 0.116667 0.220363
vt 0.883803 0.215355
vt 0.767978 0.212541
vt 0.648829 0.300384
vt 0.352739 0.302282
vt 0.242865 0.332584
vt 0.130102 0.369997
vt 0.872353 0.365157
vt 0.759103 0.329252
vt 0.246774 0.375830
vt 0.133543 0.405989
vt 0.869394 0.401192
vt 0.755768 0.372546
vt 0.801283 0.452852
vt 0.202336 0.456736
vt 0.170351 0.412016
vt 0.165443 0.359342
vt 0.158279 0.279583
vt 0.153298 0.224495
vt 0.109970 0.146472
vt 0.348291 0.008267
vt 0.173467 0.141196
vt 0.825949 0.136955
vt 0.649698 0.006520
vt 0.851276 0.167932
vt 0.880973 0.252100
vt 0.652316 0.741263
vt 0.652283 0.661253
vt 0.866321 0.438386
vt 0.297040 0.168022
vt 0.301460 0.212633
vt 0.305870 0.267316
vt 0.309558 0.305427
vt 0.315003 0.346864
vt 0.687154 0.344485
vt 0.692053 0.302978
vt 0.695244 0.264828
vt 0.698931 0.210099
vt 0.702746 0.165433
vt 0.498925 0.000000
vt 0.499253 0.053067
vt 0.500158 0.204582
vt 0.500465 0.256081
vt 0.500770 0.300255
vt 0.501951 0.493814
vt 0.502452 0.549398
vt 0.944157 0.407364
vt 0.947129 0.371327
vt 0.958609 0.221120
vt 0.961479 0.183892
vt 0.574742 0.000407
vt 0.573999 0.053227
vt 0.573861 0.204243
vt 0.574660 0.255871
vt 0.574498 0.299768
vt 0.574984 0.493414
vt 0.575079 0.547571
vt 0.055414 0.377168
vt 0.058869 0.413162
vt 0.429603 0.548461
vt 0.429185 0.494189
vt 0.427025 0.300672
vt 0.426323 0.256748
vt 0.426460 0.205130
vt 0.424500 0.054157
vt 0.423163 0.001190
vt 0.038577 0.189941
vt 0.041945 0.227127
vt 0.649164 0.137224
vt 0.574573 0.134012
vt 0.499730 0.133895
vt 0.424886 0.134924
vt 0.350329 0.139040
vt 0.501206 0.372229
vt 0.426239 0.372724
vt 0.351123 0.363477
vt 0.576257 0.371563
vt 0.651269 0.361465
vt 0.000000 0.185970
vt 0.429610 0.890138
vt 0.503960 0.849298
vt 0.504171 0.889737
vt 0.577678 0.848959
vt 0.578748 0.889387
vt 0.995988 0.231455
vt 0.575264 0.741585
vt 0.577282 0.661349
vt 0.503695 0.797085
vt 0.503421 0.741890
vt 0.503061 0.661606
vt 0.429959 0.797491
vt 0.431559 0.742250
vt 0.016846 0.373738
vt 0.981718 0.415000
vt 0.502753 0.614176
vt 0.427004 0.614022
vt 0.805847 0.395902
vt 0.808679 0.360353
vt 0.815304 0.273592
vt 0.820006 0.212454
vt 0.823046 0.173673
vt 0.197012 0.399851
vt 0.193706 0.364342
vt 0.185934 0.277675
vt 0.180419 0.216608
vt 0.176861 0.177871
vt 0.260894 0.167154
vt 0.265418 0.214762
vt 0.270169 0.269165
vt 0.274778 0.320435
vt 0.278080 0.357709
vt 0.738877 0.164080
vt 0.734994 0.211744
vt 0.730965 0.266204
vt 0.727031 0.317528
vt 0.724222 0.354842
vt 0.651593 0.415547
vt 0.722036 0.382520
vt 0.576820 0.417861
vt 0.426246 0.419090
vt 0.280636 0.385354
vt 0.351475 0.417569
vt 0.740037 0.149828
vt 0.648914 0.096035
vt 0.350088 0.097825
vt 0.259543 0.152919
vt 0.424611 0.092249
vt 0.499478 0.091575
vt 0.574338 0.091330
vt 0.501591 0.418143
vt 0.355000 0.544229
vt 0.354850 0.488720
vt 0.649692 0.542388
vt 0.750011 0.444458
vt 0.126582 0.333377
vt 0.350263 0.600153
vt 0.170318 0.412028
vt 0.950315 0.332740
vt 0.578583 0.613056
vt 0.428699 0.661980
vt 0.062351 0.451333
vt 0.832701 0.407721
vt 0.655122 0.598252
vt 0.836933 0.355121
vt 0.354913 0.798053
vt 0.964461 0.145225
vt 0.577437 0.796777
vt 0.430243 0.849694
vt 0.045441 0.265751
vt 0.847230 0.219969
vt 0.652688 0.846769
vt 0.355201 0.848356
vt 0.653133 0.886824
vt 0.355213 0.888411
vt 0.851296 0.167960
vt 0.148537 0.172538
vt 0.842981 0.275132
vt 0.836875 0.354978
vt 0.652497 0.796559
vt 0.354519 0.742753
vt 0.153298 0.224484
vt 0.353675 0.662742
vt 0.021414 0.421299
vt 0.941186 0.445579
vt 0.051712 0.338626
vt 0.004707 0.237961
vt 0.985648 0.367381
vt 0.955630 0.259787
vt 1.000000 0.179406
vt 0.035079 0.151317
vt 0.165385 0.359488
vt 0.137114 0.443139
vt 0.832668 0.407710
vt 0.875382 0.328493
vt 0.889511 0.141381
vt 0.119988 0.257066
vt 0.847231 0.219977
vt 0.148557 0.172508
vn 1.000000 0.000000 0.000000
vn 1.000000 0.000000 0.000000
vn 1.000000 0.000000 0.000000
vn 1.000000 0.000000 -0.000000
vn -1.000000 0.000001 0.000000
vn -1.000000 0.000000 -0.000000
vn -1.000000 0.000000 0.000000
vn -1.000000 0.000000 0.000000
vn -0.000000 1.000000 -0.000996
vn 0.000000 1.000000 0.000000
vn 0.053069 0.998310 0.023685
vn 0.041072 0.999099 0.010743
vn 1.000000 0.000000 -0.000000
vn 1.000000 0.000000 0.000000
vn 1.000000 -0.000000 0.000000
vn 1.000000 -0.000000 -0.000000
vn -1.000000 0.000001 0.000000
vn -1.000000 0.000001 0.000000
vn -1.000000 -0.000000 -0.000000
vn -1.000000 0.000000 0.000000
vn 0.000000 0.000000 1.000000
vn 0.000000 0.000000 1.000000
vn 0.119074 0.028246 0.992483
vn 0.122948 0.029165 0.991984
vn 1.000000 -0.000002 -0.000000
vn 1.000000 -0.000003 0.000000
vn 1.000000 -0.000001 0.000000
vn 1.000000 -0.000000 0.000000
vn -0.000000 0.000000 -1.000000
vn -0.000000 0.000000 -1.000000
vn 0.064400 0.021650 -0.997689
vn 0.062738 0.021092 -0.997807
vn -1.000000 -0.000001 0.000000
vn -1.000000 -0.000000 0.000000
vn -1.000000 -0.000001 0.000001
vn -1.000000 -0.000003 0.000001
vn -1.000000 -0.000007 0.000000
vn -1.000000 -0.000004 -0.000001
vn -1.000000 -0.000002 -0.000000
vn -1.000000 -0.000003 0.000000
vn 1.000000 0.000000 -0.000000
vn 1.000000 0.000000 -0.000000
vn -1.000000 0.000000 -0.000000
vn -1.000000 0.000000 -0.000000
vn -1.000000 0.000000 0.000000
vn -1.000000 -0.000000 -0.000000
vn 0.000000 0.999998 -0.001852
vn 0.028796 0.999584 -0.001402
vn 1.000000 0.000001 0.000001
vn 1.000000 0.000000 0.000000
vn 1.000000 -0.000001 0.000000
vn -1.000000 0.000000 -0.000001
vn -1.000000 -0.000001 0.000000
vn -1.000000 0.000001 0.000001
vn -1.000000 0.000001 0.000001
vn 1.000000 0.000001 0.000001
vn 1.000000 0.000001 0.000001
vn 1.000000 -0.000000 0.000001
vn 1.000000 -0.000000 0.000001
vn -1.000000 -0.000000 0.000001
vn 1.000000 -0.000004 -0.000001
vn 1.000000 0.000000 -0.000001
vn 1.000000 0.000002 -0.000001
vn 1.000000 0.000002 -0.000001
vn 1.000000 -0.000000 0.000001
vn 1.000000 -0.000001 0.000001
vn 1.000000 -0.000003 0.000001
vn 1.000000 -0.000000 0.000001
vn -1.000000 -0.000000 0.000001
vn -1.000000 -0.000000 0.000001
vn -1.000000 0.000002 -0.000001
vn -1.000000 0.000002 -0.000001
vn 1.000000 0.000002 0.000000
vn 1.000000 0.000001 0.000000
vn 1.000000 0.000001 0.000000
vn 1.000000 0.000002 0.000000
vn 1.000000 0.000002 -0.000000
vn 1.000000 0.000001 0.000000
vn -1.000000 0.000002 0.000000
vn -1.000000 0.000002 -0.000000
vn -1.000000 0.000002 0.000000
vn -0.062738 0.021092 -0.997807
vn -0.064400 0.021651 -0.997689
vn -0.028796 0.999584 -0.001402
vn -0.041072 0.999099 0.010743
vn -0.053069 0.998310 0.023685
vn -0.122948 0.029165 0.991984
vn -0.119074 0.028246 0.992483
vn 0.000000 -1.000000 0.000000
vn 0.000000 -1.000000 0.000000
vn 0.000000 -1.000000 0.000000
vn 0.000000 -1.000000 0.000000
vn -0.000000 -1.000000 0.000000
vn -0.000000 -1.000000 0.000000
vn -0.000000 -1.000000 0.000000
vn -0.000000 -1.000000 0.000000
vn -0.127755 0.042950 -0.990875
vn -0.127755 0.042950 -0.990875
vn -0.080685 0.996504 0.021664
vn -0.057895 0.998322 -0.000913
vn -0.106899 0.993124 0.047709
vn -0.243648 0.057797 0.968140
vn -0.243648 0.057797 0.968140
vn 0.000000 -1.000000 0.000000
vn 0.000000 -1.000000 0.000000
vn 0.000000 -1.000000 0.000000
vn 0.000000 -1.000000 0.000000
vn 0.243648 0.057797 0.968140
vn 0.243648 0.057797 0.968140
vn 0.106899 0.993124 0.047709
vn 0.080685 0.996504 0.021664
vn 0.057895 0.998322 -0.000913
vn 0.127755 0.042949 -0.990875
vn 0.127755 0.042949 -0.990875
vn 0.000000 -1.000000 -0.000000
vn 0.000000 -1.000000 -0.000000
vn 0.000000 -1.000000 -0.000000
vn 0.000000 -1.000000 -0.000000
vn 1.000000 0.000000 -0.000000
vn 1.000000 0.000000 0.000000
vn 0.072317 0.628501 -0.774440
vn 0.073470 0.628257 -0.774529
vn 0.055895 0.740150 -0.670115
vn 0.055813 0.742708 -0.667285
vn 0.000000 0.648573 -0.761153
vn 0.000000 0.648573 -0.761153
vn 0.000000 0.738901 -0.673814
vn 0.000000 0.738727 -0.674005
vn -0.000001 0.648573 -0.761153
vn -0.000001 0.648573 -0.761153
vn -0.000001 0.738727 -0.674005
vn -0.000001 0.738901 -0.673814
vn -0.073470 0.628257 -0.774529
vn -0.072317 0.628501 -0.774440
vn -0.055813 0.742708 -0.667285
vn -0.055895 0.740150 -0.670115
vn -0.053892 0.794493 -0.604878
vn -0.053892 0.794493 -0.604878
vn -0.000000 0.784359 -0.620307
vn -0.000000 0.784359 -0.620307
vn 0.000000 0.784359 -0.620307
vn 0.000000 0.784359 -0.620307
vn 0.053892 0.794493 -0.604877
vn 0.053892 0.794493 -0.604877
vn -1.000000 0.000001 0.000001
vn 0.150858 0.827566 0.540719
vn 0.150858 0.827566 0.540719
vn 0.144100 0.809379 0.569333
vn 0.145121 0.812160 0.565099
vn 0.000000 0.837214 0.546876
vn 0.000000 0.837214 0.546876
vn 0.000000 0.837214 0.546876
vn 0.000000 0.837214 0.546876
vn 0.099753 0.892001 0.440889
vn 0.101599 0.887640 0.449191
vn -0.101599 0.887640 0.449191
vn -0.099753 0.892001 0.440889
vn -0.144100 0.809379 0.569333
vn -0.145121 0.812160 0.565099
vn 0.000000 0.837214 0.546876
vn 0.000000 0.837214 0.546876
vn 0.000000 0.837214 0.546876
vn 0.000000 0.837214 0.546876
vn -0.150858 0.827566 0.540719
vn -0.150858 0.827566 0.540719
vn 0.033225 -0.883663 -0.466944
vn 0.033225 -0.883663 -0.466944
vn 0.016211 -0.901551 -0.432369
vn 0.016431 -0.901330 -0.432821
vn -0.003773 -0.287929 -0.957644
vn -0.003773 -0.287929 -0.957644
vn -0.003773 -0.287929 -0.957644
vn -0.003773 -0.287929 -0.957644
vn 0.000000 -0.917056 -0.398759
vn 0.000000 -0.917056 -0.398759
vn -0.016211 -0.901551 -0.432369
vn -0.016431 -0.901330 -0.432821
vn 0.003774 -0.287929 -0.957644
vn 0.003774 -0.287929 -0.957644
vn 0.003774 -0.287929 -0.957644
vn 0.003774 -0.287929 -0.957644
vn -0.033225 -0.883663 -0.466944
vn -0.033225 -0.883663 -0.466944
vn 0.003619 -0.276159 -0.961105
vn 0.003619 -0.276159 -0.961105
vn 0.003619 -0.276159 -0.961105
vn 0.003619 -0.276159 -0.961105
vn 0.006727 -0.999903 0.012176
vn 0.006727 -0.999903 0.012176
vn 0.003379 -0.999829 0.018164
vn 0.003488 -0.999833 0.017969
vn 0.006670 -0.999822 -0.017664
vn 0.006670 -0.999822 -0.017664
vn 0.003487 -0.999655 -0.026040
vn 0.003337 -0.999645 -0.026435
vn 0.003773 -0.287929 0.957644
vn 0.003773 -0.287929 0.957644
vn 0.003773 -0.287929 0.957644
vn 0.003773 -0.287929 0.957644
vn -0.000000 -0.999380 -0.035211
vn 0.000000 -0.999380 -0.035211
vn 0.000000 -0.999707 0.024207
vn 0.000000 -0.999707 0.024207
vn -0.003487 -0.999655 -0.026040
vn -0.003337 -0.999645 -0.026435
vn -0.003379 -0.999829 0.018164
vn -0.003488 -0.999832 0.017969
vn -0.003773 -0.287929 0.957644
vn -0.003773 -0.287929 0.957644
vn -0.003773 -0.287929 0.957644
vn -0.003773 -0.287929 0.957644
vn -0.006670 -0.999822 -0.017664
vn -0.006670 -0.999822 -0.017664
vn -0.006727 -0.999903 0.012176
vn -0.006727 -0.999903 0.012176
vn -0.003619 -0.276159 -0.961105
vn -0.003619 -0.276159 -0.961105
vn -0.003619 -0.276159 -0.961105
vn -0.003619 -0.276159 -0.961105
vn -0.039485 -0.960201 0.276505
vn -0.039485 -0.960201 0.276505
vn -0.018199 -0.970734 0.239466
vn -0.018172 -0.970746 0.239418
vn 0.051226 -0.272125 0.960898
vn 0.051226 -0.272125 0.960897
vn 0.051226 -0.272125 0.960897
vn 0.051226 -0.272125 0.960898
vn 0.000000 -0.978240 0.207478
vn 0.000000 -0.978240 0.207478
vn 0.018199 -0.970734 0.239466
vn 0.018172 -0.970746 0.239418
vn -0.051226 -0.272124 0.960898
vn -0.051226 -0.272124 0.960898
vn -0.051226 -0.272124 0.960898
vn -0.051226 -0.272124 0.960898
vn 0.039485 -0.960201 0.276505
vn 0.039485 -0.960201 0.276505
vn 0.000000 -1.000000 0.000000
vn 0.000000 -1.000000 0.000000
vn 0.000000 -1.000000 0.000000
vn 0.000000 -1.000000 0.000000
vn -1.000000 0.000000 0.000000
vn -1.000000 0.000000 0.000000
vn -1.000000 0.000000 0.000000
vn -1.000000 0.000000 0.000000
vn 1.000000 -0.000000 0.000000
vn 1.000000 -0.000000 0.000000
vn 1.000000 -0.000000 0.000000
vn 1.000000 -0.000000 0.000000
vn 0.000000 -1.000000 -0.000000
vn 0.000000 -1.000000 -0.000000
vn 0.000000 -1.000000 -0.000000
vn 0.000000 -1.000000 -0.000000
vn 0.000000 -1.000000 -0.000000
vn 0.000000 -1.000000 -0.000000
vn 0.000000 -1.000000 -0.000000
vn 0.000000 -1.000000 -0.000000
vn -1.000000 -0.000000 0.000000
vn -1.000000 -0.000000 0.000000
vn -1.000000 -0.000000 0.000000
vn -1.000000 -0.000000 0.000000
vn 1.000000 -0.000000 0.000000
vn 1.000000 -0.000000 0.000000
vn 1.000000 -0.000000 0.000000
vn 1.000000 -0.000000 0.000000
vn 0.000000 -1.000000 -0.000000
vn 0.000000 -1.000000 -0.000000
vn 0.000000 -1.000000 -0.000000
vn 0.000000 -1.000000 -0.000000
vn -1.000000 0.000000 0.000001
vn -1.000000 0.000000 0.000000
vn -1.000000 -0.000000 0.000000
vn -1.000000 -0.000000 -0.000000
vn -1.000000 0.000000 0.000000
vn 1.000000 -0.000007 0.000000
vn -0.077541 0.936848 0.341032
vn -0.077541 0.936848 0.341032
vn 0.077541 0.936848 0.341032
vn 0.077541 0.936848 0.341032
vn 0.088896 0.624901 -0.775627
vn 0.088896 0.624901 -0.775627
vn 0.000000 0.648572 -0.761153
vn 0.000000 0.648572 -0.761153
vn -0.000000 0.648573 -0.761153
vn -0.000000 0.648573 -0.761153
vn -0.088896 0.624901 -0.775626
vn -0.088896 0.624901 -0.775626
vn -0.000000 0.940638 0.339411
vn -0.000000 0.940638 0.339411
vn -0.000000 0.893125 0.449808
vn -0.000000 0.893125 0.449808
vn -0.000000 0.768157 0.640262
vn -0.000000 0.768157 0.640262
vn 0.000000 0.940638 0.339411
vn 0.000000 0.940638 0.339411
vn 0.000000 0.893125 0.449808
vn 0.000000 0.893125 0.449808
vn 0.000000 0.768156 0.640262
vn 0.000000 0.768156 0.640262
s 1
g pCube1
usemtl initialShadingGroup
f 114/124/1 115/125/2 15/17/3 11/13/4
s 2
f 51/55/5 52/56/6 119/129/7 120/130/8
s 3
f 56/60/9 57/61/10 75/79/11 76/80/12
s 1
f 116/126/13 117/127/14 21/23/15 5/5/16
s 2
f 49/53/17 50/54/18 121/131/19 122/132/20
s 6
f 58/62/21 59/63/22 73/77/23 74/78/24
s 1
f 21/23/15 110/120/25 111/121/26 5/5/16
f 112/122/27 113/123/28 11/13/4 15/17/3
s 7
f 53/57/29 54/58/30 78/82/31 79/83/32
s 2
f 107/117/33 108/118/34 38/42/35 39/194/36
f 40/174/37 41/175/38 105/115/39 106/116/40
s 1
f 6/7/41 11/13/4 113/123/28 36/39/42
s 2
f 7/8/43 12/14/44 119/129/7 128/140/45
f 37/40/46 38/172/35 108/118/34
s 3
f 55/59/47 56/60/9 76/80/12 77/81/48
s 1
f 115/125/2 116/126/13 5/5/16 15/17/3
f 111/121/26 112/122/27 15/17/3 5/5/16
s 2
f 106/116/40 107/117/33 39/167/36 40/174/37
f 50/54/18 51/55/5 120/130/8 121/131/19
s 1
f 117/127/14 118/128/49 25/27/50 21/23/15
f 25/27/50 109/119/51 110/120/25 21/23/15
s 2
f 41/161/38 42/190/52 104/114/53 105/115/39
f 48/52/54 49/53/17 122/132/20 123/133/55
s 1
f 127/138/56 118/128/49 47/51/57
f 30/32/58 109/119/51 25/27/50 4/4/59
s 2
f 29/31/60 104/114/53 42/159/52
s 1
f 32/188/61 31/33/62 26/28/63 22/24/64
f 10/12/65 35/195/66 34/36/67 16/18/68
s 2
f 39/194/36 38/42/35 9/11/69 17/19/70
f 27/29/71 42/190/52 41/161/38 23/25/72
s 1
f 2/2/73 45/49/74 44/48/75 14/16/76
f 20/22/77 46/50/78 45/49/74 2/2/73
f 20/22/77 47/51/57 46/50/78
s 2
f 1/1/79 50/54/18 49/53/17 19/21/80
f 13/15/81 51/55/5 50/54/18 1/1/79
f 13/15/81 52/56/6 51/55/5
s 7
f 64/68/82 65/69/83 54/58/30 53/57/29
s 3
f 66/70/84 67/71/85 56/60/9 55/59/47
f 67/71/85 68/72/86 57/61/10 56/60/9
s 6
f 69/73/87 70/74/88 59/63/22 58/62/21
s off
f 23/25/89 61/65/90 60/64/91 27/29/92
f 9/11/93 63/67/94 62/66/95 17/19/96
s 7
f 7/9/97 65/69/83 64/68/82 37/41/98
s 3
f 1/1/99 67/71/85 66/70/84 13/15/100
f 19/21/101 68/72/86 67/71/85 1/1/99
s 6
f 29/150/102 70/74/88 69/73/87 3/3/103
s off
f 72/76/104 71/75/105 22/24/106 26/28/107
s 6
f 74/78/24 73/77/23 30/148/108 4/149/109
s 3
f 76/80/12 75/79/11 20/22/110 2/2/111
f 77/81/48 76/80/12 2/2/111 14/16/112
s 7
f 79/83/32 78/82/31 6/6/113 36/38/114
s off
f 81/85/115 80/84/116 10/12/117 16/18/118
s 1
f 14/16/76 44/48/75 43/47/119
f 114/124/1 129/143/120 43/47/119
s 12
f 129/142/121 130/144/122 84/89/123 43/90/124
s 13
f 130/144/125 131/145/126 83/88/127 84/89/128
s 14
f 131/145/129 132/146/130 82/87/131 83/88/132
s 15
f 132/146/133 128/141/134 52/86/135 82/87/136
f 82/87/136 52/86/135 13/15/137 66/70/138
s 14
f 83/88/132 82/87/131 66/70/139 55/59/140
s 13
f 84/89/128 83/88/127 55/59/141 77/81/142
s 12
f 43/90/124 84/89/123 77/81/143 14/16/144
s 2
f 19/21/80 49/53/17 48/52/54
f 123/133/55 124/135/145 48/52/54
s 16
f 20/22/146 75/79/147 86/92/148 47/93/149
s off
f 75/79/150 57/61/151 85/91/152 86/92/153
s 16
f 47/93/149 86/92/148 126/137/154 127/139/155
s 17
f 124/134/156 125/136/157 87/94/158 48/95/159
s off
f 87/94/160 85/91/161 57/61/162 68/72/163
s 17
f 48/95/159 87/94/158 68/72/164 19/21/165
s 18
f 36/171/166 35/169/167 88/165/168 79/97/169
s off
f 35/37/170 10/12/171 80/84/172 88/187/173
s 18
f 79/97/169 88/165/168 89/98/174 90/99/175
f 90/99/175 89/98/174 91/100/176 64/101/177
s off
f 91/163/178 63/67/179 9/11/180 38/192/181
s 18
f 64/101/177 91/100/176 38/168/182 37/170/183
s off
f 23/25/184 41/191/185 94/155/186 61/65/187
s 19
f 41/45/188 40/44/189 93/103/190 94/104/191
s 20
f 40/44/192 39/176/193 92/164/194 93/103/195
s off
f 39/43/196 17/19/197 62/66/198 92/185/199
s 20
f 93/103/195 92/164/194 95/105/200 96/106/201
s 19
f 94/104/191 93/103/190 96/106/202 97/107/203
s 20
f 96/106/201 95/105/200 98/108/204 99/109/205
s 19
f 97/107/203 96/106/202 99/109/206 100/157/207
s off
f 98/166/208 81/85/209 16/18/210 34/193/211
s 20
f 99/109/205 98/108/204 34/162/212 33/177/213
s 19
f 100/157/207 99/109/206 33/177/214 32/179/215
s off
f 71/75/216 100/182/217 32/152/218 22/24/219
s 21
f 29/150/220 42/160/221 101/156/222 70/74/223
s off
f 42/46/224 27/29/225 60/64/226 101/181/227
s 21
f 70/74/223 101/156/222 102/112/228 59/63/229
f 59/63/229 102/112/228 103/113/230 73/77/231
s off
f 103/158/232 72/76/233 26/28/234 31/189/235
s 21
f 73/77/231 103/113/230 31/153/236 30/148/237
s off
f 89/98/238 88/165/239 98/108/240 95/105/241
f 88/96/242 80/84/243 81/85/244 98/183/245
f 63/67/246 91/186/247 92/102/248 62/66/249
f 91/100/250 89/98/251 95/105/252 92/164/253
f 97/107/254 100/157/255 103/113/256 102/112/257
f 100/110/258 71/75/259 72/76/260 103/180/261
f 61/65/262 94/184/263 101/111/264 60/64/265
f 94/104/266 97/107/267 102/112/268 101/156/269
s 2
f 3/151/270 28/30/271 104/114/53 29/31/60
f 105/115/39 104/114/53 28/30/271 24/26/272
f 106/116/40 105/115/39 24/26/272 8/10/273
f 18/20/274 107/117/33 106/116/40 8/10/273
f 12/14/44 108/118/34 107/117/33 18/20/274
f 37/40/46 108/118/34 12/14/44 7/8/43
s 1
f 30/32/58 31/154/62 109/119/51
f 110/120/25 109/119/51 31/33/62 32/188/61
f 111/121/26 110/120/25 32/34/61 33/35/275
f 33/35/275 34/178/67 112/122/27 111/121/26
f 34/36/67 35/195/66 113/123/28 112/122/27
f 36/39/42 113/123/28 35/173/66
f 43/47/119 44/48/75 115/125/2 114/124/1
f 44/48/75 45/49/74 116/126/13 115/125/2
f 45/49/74 46/50/78 117/127/14 116/126/13
f 46/50/78 47/51/57 118/128/49 117/127/14
s 2
f 120/130/8 119/129/7 12/14/44 18/20/274
f 121/131/19 120/130/8 18/20/274 8/10/273
f 122/132/20 121/131/19 8/10/273 24/26/272
f 123/133/55 122/132/20 24/26/272 28/30/271
f 3/151/270 124/135/145 123/133/55 28/30/271
s 17
f 3/3/276 69/73/277 125/136/157 124/134/156
s 16
f 127/139/155 126/137/154 74/78/278 4/149/279
s 1
f 4/4/59 25/27/50 118/128/49 127/138/56
s 2
f 128/140/45 119/129/7 52/56/6
s 1
f 6/7/41 129/143/120 114/124/1 11/13/4
s 12
f 6/6/280 78/82/281 130/144/122 129/142/121
s 13
f 78/82/282 54/58/283 131/145/126 130/144/125
s 14
f 54/58/284 65/69/285 132/146/130 131/145/129
s 15
f 65/69/286 7/9/287 128/141/134 132/146/133
s 22
f 58/62/288 74/78/289 126/137/290 133/147/291
f 133/147/291 126/137/290 86/92/292 85/91/293
s 23
f 69/73/294 58/62/295 133/147/296 125/136/297
f 125/136/297 133/147/296 85/91/298 87/94/299
