# This file uses centimeters as units for non-parametric coordinates.

mtllib Kid.mtl
g default
v -0.500000 0.000000 0.500000
v 0.500000 0.000000 0.500000
v -0.500000 2.000000 0.500000
v 0.500000 2.000000 0.500000
v -0.500000 2.000000 -0.500000
v 0.500000 2.000000 -0.500000
v -0.500000 0.000000 -0.500000
v 0.500000 0.000000 -0.500000
v -0.500000 1.000000 0.500000
v 0.500000 1.000000 0.500000
v 0.500000 1.000000 -0.500000
v -0.500000 1.000000 -0.500000
v -0.500000 1.500000 -0.500000
v 0.500000 1.500000 -0.500000
v 0.500000 1.500000 0.500000
v -0.500000 1.500000 0.500000
v -0.500000 0.500000 0.500000
v 0.500000 0.500000 0.500000
v 0.500000 0.500000 -0.500000
v -0.500000 0.500000 -0.500000
v -0.500000 2.000000 0.000000
v 0.500000 2.000000 0.000000
v 0.500000 1.500000 0.000000
v 0.500000 1.000000 0.000000
v 0.500000 0.500000 0.000000
v 0.500000 0.000000 0.000000
v -0.500000 0.000000 0.000000
v -0.500000 0.500000 0.000000
v -0.500000 1.000000 0.000000
v -0.500000 1.500000 0.000000
v 0.000000 0.000000 0.500000
v 0.000000 0.000000 0.000000
v 0.000000 0.000000 -0.500000
v 0.000000 0.500000 -0.500000
v 0.000000 1.000000 -0.500000
v 0.000000 1.500000 -0.500000
v 0.000000 2.000000 -0.500000
v 0.000000 2.000000 0.000000
v 0.000000 2.000000 0.500000
v 0.000000 1.500000 0.500000
v 0.000000 1.000000 0.500000
v 0.000000 0.500000 0.500000
v -0.250000 0.000000 0.500000
v -0.250000 0.000000 0.000000
v -0.250000 0.000000 -0.500000
v -0.250000 0.500000 -0.500000
v -0.250000 1.000000 -0.500000
v -0.250000 1.500000 -0.500000
v -0.250000 2.000000 -0.500000
v -0.250000 2.000000 0.000000
v -0.250000 2.000000 0.500000
v -0.250000 1.500000 0.500000
v -0.250000 1.000000 0.500000
v -0.250000 0.500000 0.500000
v 0.250000 1.000000 -0.500000
v 0.250000 0.500000 -0.500000
v 0.250000 0.000000 -0.500000
v 0.250000 0.000000 0.000000
v 0.250000 0.000000 0.500000
v 0.250000 0.500000 0.500000
v 0.250000 1.000000 0.500000
v 0.250000 1.500000 0.500000
v 0.250000 2.000000 0.500000
v 0.250000 2.000000 0.000000
v 0.250000 2.000000 -0.500000
v 0.250000 1.500000 -0.500000
v -0.500000 0.000000 -0.250000
v -0.250000 0.000000 -0.250000
v 0.000000 0.000000 -0.250000
v 0.250000 0.000000 -0.250000
v 0.500000 0.000000 -0.250000
v 0.500000 0.500000 -0.250000
v 0.500000 1.000000 -0.250000
v 0.500000 1.500000 -0.250000
v 0.500000 2.000000 -0.250000
v 0.250000 2.000000 -0.250000
v 0.000000 2.000000 -0.250000
v -0.250000 2.000000 -0.250000
v -0.500000 2.000000 -0.250000
v -0.500000 1.500000 -0.250000
v -0.500000 1.000000 -0.250000
v -0.500000 0.500000 -0.250000
v -0.500000 2.000000 0.250000
v -0.250000 2.000000 0.250000
v 0.000000 2.000000 0.250000
v 0.250000 2.000000 0.250000
v 0.500000 2.000000 0.250000
v 0.500000 1.500000 0.250000
v 0.500000 1.000000 0.250000
v 0.500000 0.500000 0.250000
v 0.500000 0.000000 0.250000
v 0.250000 0.000000 0.250000
v 0.000000 0.000000 0.250000
v -0.250000 0.000000 0.250000
v -0.500000 0.000000 0.250000
v -0.500000 0.500000 0.250000
v -0.500000 1.000000 0.250000
v -0.500000 1.500000 0.250000
v -0.500000 1.750000 -0.500000
v -0.250000 1.750000 -0.500000
v 0.000000 1.750000 -0.500000
v 0.250000 1.750000 -0.500000
v 0.500000 1.750000 -0.500000
v 0.500000 1.750000 -0.250000
v 0.500000 1.750000 0.000000
v 0.500000 1.750000 0.250000
v 0.500000 1.750000 0.500000
v 0.250000 1.750000 0.500000
v 0.000000 1.750000 0.500000
v -0.250000 1.750000 0.500000
v -0.500000 1.750000 0.500000
v -0.500000 1.750000 0.250000
v -0.500000 1.750000 0.000000
v -0.500000 1.750000 -0.250000
v -0.500000 1.250000 0.500000
v -0.250000 1.250000 0.500000
v 0.000000 1.250000 0.500000
v 0.250000 1.250000 0.500000
v 0.500000 1.250000 0.500000
v 0.500000 1.250000 0.250000
v 0.500000 1.250000 0.000000
v 0.500000 1.250000 -0.250000
v 0.500000 1.250000 -0.500000
v 0.250000 1.250000 -0.500000
v 0.000000 1.250000 -0.500000
v -0.250000 1.250000 -0.500000
v -0.500000 1.250000 -0.500000
v -0.500000 1.250000 -0.250000
v -0.500000 1.250000 0.000000
v -0.500000 1.250000 0.250000
v 0.500000 0.750000 -0.500000
v 0.500000 0.750000 -0.250000
v 0.500000 0.750000 0.000000
v 0.500000 0.750000 0.250000
v 0.500000 0.750000 0.500000
v 0.250000 0.750000 0.500000
v 0.000000 0.750000 0.500000
v -0.250000 0.750000 0.500000
v -0.500000 0.750000 0.500000
v -0.500000 0.750000 0.250000
v -0.500000 0.750000 0.000000
v -0.500000 0.750000 -0.250000
v -0.500000 0.750000 -0.500000
v -0.250000 0.750000 -0.500000
v 0.000000 0.750000 -0.500000
v 0.250000 0.750000 -0.500000
v -0.500000 0.250000 0.500000
v -0.250000 0.250000 0.500000
v 0.000000 0.250000 0.500000
v 0.250000 0.250000 0.500000
v 0.500000 0.250000 0.500000
v 0.500000 0.250000 0.250000
v 0.500000 0.250000 0.000000
v 0.500000 0.250000 -0.250000
v 0.500000 0.250000 -0.500000
v 0.250000 0.250000 -0.500000
v 0.000000 0.250000 -0.500000
v -0.250000 0.250000 -0.500000
v -0.500000 0.250000 -0.500000
v -0.500000 0.250000 -0.250000
v -0.500000 0.250000 0.000000
v -0.500000 0.250000 0.250000
vt 0.987375 0.497383
vt 0.251570 0.497383
vt 0.251570 0.747904
vt 0.987375 0.747904
vt 0.496838 0.747904
vt 0.742106 0.747904
vt 0.496838 0.497383
vt 0.742106 0.497383
vt 0.742106 0.251124
vt 0.496838 0.251124
vt 0.251570 0.251124
vt 0.987375 0.251124
vt 0.251570 0.006342
vt 0.006302 0.006342
vt 0.251570 0.993658
vt 0.006302 0.993658
vt 0.006302 0.497383
vt 0.006302 0.747904
vt 0.006302 0.251124
vt 0.742106 0.622644
vt 0.496838 0.622644
vt 0.251570 0.622644
vt 0.987375 0.622644
vt 0.006302 0.622644
vt 0.987375 0.374254
vt 0.006302 0.374254
vt 0.251570 0.374254
vt 0.496838 0.374254
vt 0.742106 0.374254
vt 0.864741 0.747904
vt 0.006302 0.870781
vt 0.251570 0.870781
vt 0.374204 0.747904
vt 0.374204 0.622644
vt 0.374204 0.497383
vt 0.374204 0.374254
vt 0.251570 0.128733
vt 0.374204 0.251124
vt 0.864741 0.251124
vt 0.006302 0.128733
vt 0.864741 0.374254
vt 0.864741 0.497383
vt 0.864741 0.622644
vt 0.128936 0.251124
vt 0.128936 0.128733
vt 0.128936 0.006342
vt 0.619472 0.251124
vt 0.619472 0.374254
vt 0.619472 0.497383
vt 0.619472 0.622644
vt 0.619472 0.747904
vt 0.128936 0.993658
vt 0.128936 0.870781
vt 0.128936 0.747904
vt 0.128936 0.622644
vt 0.128936 0.497383
vt 0.128936 0.374254
vt 0.067619 0.251124
vt 0.067619 0.128733
vt 0.067619 0.006342
vt 0.680789 0.251124
vt 0.680789 0.374254
vt 0.680789 0.497383
vt 0.680789 0.622644
vt 0.680789 0.747904
vt 0.067619 0.993658
vt 0.067619 0.870781
vt 0.067619 0.747904
vt 0.067619 0.622644
vt 0.067619 0.497383
vt 0.067619 0.374254
vt 0.558155 0.497383
vt 0.558155 0.374254
vt 0.190253 0.006342
vt 0.558155 0.251124
vt 0.190253 0.128733
vt 0.190253 0.251124
vt 0.190253 0.374254
vt 0.190253 0.497383
vt 0.190253 0.622644
vt 0.190253 0.747904
vt 0.190253 0.870781
vt 0.558155 0.747904
vt 0.190253 0.993658
vt 0.558155 0.622644
vt 0.803423 0.251124
vt 0.006302 0.067537
vt 0.067619 0.067537
vt 0.128936 0.067537
vt 0.190253 0.067537
vt 0.251570 0.067537
vt 0.435521 0.251124
vt 0.435521 0.374254
vt 0.435521 0.497383
vt 0.435521 0.622644
vt 0.251570 0.932220
vt 0.435521 0.747904
vt 0.190253 0.932220
vt 0.128936 0.932220
vt 0.067619 0.932220
vt 0.803424 0.747904
vt 0.006302 0.932220
vt 0.803424 0.622644
vt 0.803423 0.497383
vt 0.803423 0.374254
vt 0.926058 0.747904
vt 0.006302 0.809343
vt 0.067619 0.809343
vt 0.128936 0.809343
vt 0.190253 0.809343
vt 0.251570 0.809343
vt 0.312887 0.747904
vt 0.312887 0.622644
vt 0.312887 0.497383
vt 0.312887 0.374254
vt 0.251570 0.189929
vt 0.312887 0.251124
vt 0.190253 0.189929
vt 0.128936 0.189929
vt 0.067619 0.189929
vt 0.926058 0.251124
vt 0.006302 0.189929
vt 0.926058 0.374254
vt 0.926058 0.497383
vt 0.926058 0.622644
vt 0.742106 0.685274
vt 0.680789 0.685274
vt 0.619472 0.685274
vt 0.558155 0.685274
vt 0.496838 0.685274
vt 0.435521 0.685274
vt 0.374204 0.685274
vt 0.312887 0.685274
vt 0.251570 0.685274
vt 0.190253 0.685274
vt 0.128936 0.685274
vt 0.067619 0.685274
vt 0.987375 0.685274
vt 0.006302 0.685274
vt 0.926058 0.685274
vt 0.864741 0.685274
vt 0.803424 0.685274
vt 0.987375 0.560013
vt 0.006302 0.560013
vt 0.067619 0.560013
vt 0.128936 0.560013
vt 0.190253 0.560013
vt 0.251570 0.560013
vt 0.312887 0.560013
vt 0.374204 0.560013
vt 0.435521 0.560013
vt 0.496838 0.560013
vt 0.558155 0.560013
vt 0.619472 0.560013
vt 0.680789 0.560013
vt 0.742106 0.560013
vt 0.803424 0.560013
vt 0.864741 0.560013
vt 0.926058 0.560013
vt 0.496838 0.435818
vt 0.435521 0.435818
vt 0.374204 0.435818
vt 0.312887 0.435818
vt 0.251570 0.435818
vt 0.190253 0.435818
vt 0.128936 0.435818
vt 0.067619 0.435818
vt 0.987375 0.435818
vt 0.006302 0.435818
vt 0.926058 0.435818
vt 0.864741 0.435818
vt 0.803423 0.435818
vt 0.742106 0.435818
vt 0.680789 0.435818
vt 0.619472 0.435818
vt 0.558155 0.435818
vt 0.987375 0.312689
vt 0.006302 0.312689
vt 0.067619 0.312689
vt 0.128936 0.312689
vt 0.190253 0.312689
vt 0.251570 0.312689
vt 0.312887 0.312689
vt 0.374204 0.312689
vt 0.435521 0.312689
vt 0.496838 0.312689
vt 0.558155 0.312689
vt 0.619472 0.312689
vt 0.680789 0.312689
vt 0.742106 0.312689
vt 0.803423 0.312689
vt 0.864741 0.312689
vt 0.926058 0.312689
vn 0.000000 0.000000 1.000000
vn 0.000000 0.000000 1.000000
vn 0.000000 0.000000 1.000000
vn 0.000000 0.000000 1.000000
vn 0.000000 1.000000 0.000000
vn 0.000000 1.000000 0.000000
vn 0.000000 1.000000 0.000000
vn 0.000000 1.000000 0.000000
vn 0.000000 0.000000 -1.000000
vn 0.000000 0.000000 -1.000000
vn 0.000000 0.000000 -1.000000
vn 0.000000 0.000000 -1.000000
vn 0.000000 -1.000000 0.000000
vn 0.000000 -1.000000 0.000000
vn 0.000000 -1.000000 0.000000
vn 0.000000 -1.000000 0.000000
vn 1.000000 0.000000 0.000000
vn 1.000000 0.000000 0.000000
vn 1.000000 0.000000 0.000000
vn 1.000000 0.000000 0.000000
vn -1.000000 0.000000 0.000000
vn -1.000000 0.000000 0.000000
vn -1.000000 0.000000 0.000000
vn -1.000000 0.000000 0.000000
vn 0.000000 0.000000 1.000000
vn 0.000000 0.000000 1.000000
vn 0.000000 0.000000 1.000000
vn 0.000000 0.000000 1.000000
vn 1.000000 0.000000 0.000000
vn 1.000000 0.000000 0.000000
vn 1.000000 0.000000 0.000000
vn 1.000000 0.000000 0.000000
vn 0.000000 0.000000 -1.000000
vn 0.000000 0.000000 -1.000000
vn 0.000000 0.000000 -1.000000
vn 0.000000 0.000000 -1.000000
vn -1.000000 0.000000 0.000000
vn -1.000000 0.000000 0.000000
vn -1.000000 0.000000 0.000000
vn -1.000000 0.000000 0.000000
vn 0.000000 0.000000 -1.000000
vn 0.000000 0.000000 -1.000000
vn 1.000000 0.000000 0.000000
vn 1.000000 0.000000 0.000000
vn 0.000000 0.000000 1.000000
vn 0.000000 0.000000 1.000000
vn -1.000000 0.000000 0.000000
vn -1.000000 0.000000 0.000000
vn 0.000000 0.000000 1.000000
vn 0.000000 0.000000 1.000000
vn 1.000000 0.000000 0.000000
vn 1.000000 0.000000 0.000000
vn 0.000000 0.000000 -1.000000
vn 0.000000 0.000000 -1.000000
vn -1.000000 0.000000 0.000000
vn -1.000000 0.000000 0.000000
vn 0.000000 1.000000 0.000000
vn 0.000000 1.000000 0.000000
vn 1.000000 0.000000 0.000000
vn 1.000000 0.000000 0.000000
vn 1.000000 0.000000 0.000000
vn 1.000000 0.000000 0.000000
vn 1.000000 0.000000 0.000000
vn 1.000000 0.000000 0.000000
vn 0.000000 -1.000000 0.000000
vn 0.000000 -1.000000 0.000000
vn -1.000000 0.000000 0.000000
vn -1.000000 0.000000 0.000000
vn -1.000000 0.000000 0.000000
vn -1.000000 0.000000 0.000000
vn -1.000000 0.000000 0.000000
vn -1.000000 0.000000 0.000000
vn 0.000000 -1.000000 0.000000
vn 0.000000 -1.000000 0.000000
vn 0.000000 -1.000000 0.000000
vn 0.000000 0.000000 -1.000000
vn 0.000000 0.000000 -1.000000
vn 0.000000 0.000000 -1.000000
vn 0.000000 0.000000 -1.000000
vn 0.000000 0.000000 -1.000000
vn 0.000000 0.000000 -1.000000
vn 0.000000 1.000000 0.000000
vn 0.000000 1.000000 0.000000
vn 0.000000 1.000000 0.000000
vn 0.000000 0.000000 1.000000
vn 0.000000 0.000000 1.000000
vn 0.000000 0.000000 1.000000
vn 0.000000 0.000000 1.000000
vn 0.000000 0.000000 1.000000
vn 0.000000 0.000000 1.000000
vn 0.000000 -1.000000 0.000000
vn 0.000000 -1.000000 0.000000
vn 0.000000 -1.000000 0.000000
vn 0.000000 0.000000 -1.000000
vn 0.000000 0.000000 -1.000000
vn 0.000000 0.000000 -1.000000
vn 0.000000 0.000000 -1.000000
vn 0.000000 0.000000 -1.000000
vn 0.000000 0.000000 -1.000000
vn 0.000000 1.000000 0.000000
vn 0.000000 1.000000 0.000000
vn 0.000000 1.000000 0.000000
vn 0.000000 0.000000 1.000000
vn 0.000000 0.000000 1.000000
vn 0.000000 0.000000 1.000000
vn 0.000000 0.000000 1.000000
vn 0.000000 0.000000 1.000000
vn 0.000000 0.000000 1.000000
vn 0.000000 0.000000 -1.000000
vn 0.000000 0.000000 -1.000000
vn 0.000000 0.000000 -1.000000
vn 0.000000 -1.000000 0.000000
vn 0.000000 -1.000000 0.000000
vn 0.000000 -1.000000 0.000000
vn 0.000000 0.000000 1.000000
vn 0.000000 0.000000 1.000000
vn 0.000000 0.000000 1.000000
vn 0.000000 0.000000 1.000000
vn 0.000000 0.000000 1.000000
vn 0.000000 0.000000 1.000000
vn 0.000000 1.000000 0.000000
vn 0.000000 1.000000 0.000000
vn 0.000000 1.000000 0.000000
vn 0.000000 0.000000 -1.000000
vn 0.000000 0.000000 -1.000000
vn 0.000000 0.000000 -1.000000
vn 0.000000 -1.000000 0.000000
vn 0.000000 -1.000000 0.000000
vn 0.000000 -1.000000 0.000000
vn 0.000000 -1.000000 0.000000
vn 0.000000 -1.000000 0.000000
vn 1.000000 0.000000 0.000000
vn 1.000000 0.000000 0.000000
vn 1.000000 0.000000 0.000000
vn 1.000000 0.000000 0.000000
vn 1.000000 0.000000 0.000000
vn 1.000000 0.000000 0.000000
vn 0.000000 1.000000 0.000000
vn 0.000000 1.000000 0.000000
vn 0.000000 1.000000 0.000000
vn 0.000000 1.000000 0.000000
vn 0.000000 1.000000 0.000000
vn -1.000000 0.000000 0.000000
vn -1.000000 0.000000 0.000000
vn -1.000000 0.000000 0.000000
vn -1.000000 0.000000 0.000000
vn -1.000000 0.000000 0.000000
vn -1.000000 0.000000 0.000000
vn 0.000000 1.000000 0.000000
vn 0.000000 1.000000 0.000000
vn 0.000000 1.000000 0.000000
vn 0.000000 1.000000 0.000000
vn 0.000000 1.000000 0.000000
vn 1.000000 0.000000 0.000000
vn 1.000000 0.000000 0.000000
vn 1.000000 0.000000 0.000000
vn 1.000000 0.000000 0.000000
vn 1.000000 0.000000 0.000000
vn 1.000000 0.000000 0.000000
vn 0.000000 -1.000000 0.000000
vn 0.000000 -1.000000 0.000000
vn 0.000000 -1.000000 0.000000
vn 0.000000 -1.000000 0.000000
vn 0.000000 -1.000000 0.000000
vn -1.000000 0.000000 0.000000
vn -1.000000 0.000000 0.000000
vn -1.000000 0.000000 0.000000
vn -1.000000 0.000000 0.000000
vn -1.000000 0.000000 0.000000
vn -1.000000 0.000000 0.000000
vn 0.000000 0.000000 -1.000000
vn 0.000000 0.000000 -1.000000
vn 0.000000 0.000000 -1.000000
vn 0.000000 0.000000 -1.000000
vn 0.000000 0.000000 -1.000000
vn 1.000000 0.000000 0.000000
vn 1.000000 0.000000 0.000000
vn 1.000000 0.000000 0.000000
vn 1.000000 0.000000 0.000000
vn 1.000000 0.000000 0.000000
vn 0.000000 0.000000 1.000000
vn 0.000000 0.000000 1.000000
vn 0.000000 0.000000 1.000000
vn 0.000000 0.000000 1.000000
vn 0.000000 0.000000 1.000000
vn -1.000000 0.000000 0.000000
vn -1.000000 0.000000 0.000000
vn -1.000000 0.000000 0.000000
vn -1.000000 0.000000 0.000000
vn -1.000000 0.000000 0.000000
vn 0.000000 0.000000 1.000000
vn 0.000000 0.000000 1.000000
vn 0.000000 0.000000 1.000000
vn 0.000000 0.000000 1.000000
vn 0.000000 0.000000 1.000000
vn 1.000000 0.000000 0.000000
vn 1.000000 0.000000 0.000000
vn 1.000000 0.000000 0.000000
vn 1.000000 0.000000 0.000000
vn 1.000000 0.000000 0.000000
vn 0.000000 0.000000 -1.000000
vn 0.000000 0.000000 -1.000000
vn 0.000000 0.000000 -1.000000
vn 0.000000 0.000000 -1.000000
vn 0.000000 0.000000 -1.000000
vn -1.000000 0.000000 0.000000
vn -1.000000 0.000000 0.000000
vn -1.000000 0.000000 0.000000
vn -1.000000 0.000000 0.000000
vn -1.000000 0.000000 0.000000
vn 0.000000 0.000000 1.000000
vn 0.000000 0.000000 1.000000
vn 0.000000 0.000000 1.000000
vn 0.000000 0.000000 1.000000
vn 0.000000 0.000000 1.000000
vn 1.000000 0.000000 0.000000
vn 1.000000 0.000000 0.000000
vn 1.000000 0.000000 0.000000
vn 1.000000 0.000000 0.000000
vn 1.000000 0.000000 0.000000
vn 0.000000 0.000000 -1.000000
vn 0.000000 0.000000 -1.000000
vn 0.000000 0.000000 -1.000000
vn 0.000000 0.000000 -1.000000
vn 0.000000 0.000000 -1.000000
vn -1.000000 0.000000 0.000000
vn -1.000000 0.000000 0.000000
vn -1.000000 0.000000 0.000000
vn -1.000000 0.000000 0.000000
vn -1.000000 0.000000 0.000000
s 1
g pCube1
usemtl initialShadingGroup
f 40/55/1 117/146/2 118/147/3 62/80/4
s 2
f 76/98/5 77/99/6 38/53/7 64/82/8
s 3
f 124/153/9 125/154/10 36/50/11 66/85/12
s 4
f 32/45/13 69/89/14 70/90/15 58/76/16
s 5
f 23/34/17 121/150/18 122/151/19 74/95/20
s 6
f 80/103/21 128/157/22 129/158/23 30/43/24
s 1
f 136/165/25 137/166/26 42/57/27 60/78/28
s 5
f 132/161/29 133/162/30 25/36/31 72/93/32
s 3
f 34/48/33 145/175/34 146/176/35 56/73/36
s 6
f 141/171/37 142/172/38 82/105/39 28/41/40
s 3
f 36/50/11 101/128/41 102/129/42 66/85/12
s 5
f 104/131/43 105/132/44 23/34/17 74/95/20
s 1
f 108/135/45 109/136/46 40/55/1 62/80/4
s 6
f 113/141/47 114/142/48 80/103/21 30/43/24
s 1
f 42/57/27 149/180/49 150/181/50 60/78/28
s 5
f 25/36/31 153/184/51 154/185/52 72/93/32
s 3
f 156/187/53 157/188/54 34/48/33 56/73/36
s 6
f 82/105/39 160/191/55 161/192/56 28/41/40
s 2
f 38/53/7 85/109/57 86/110/58 64/82/8
s 5
f 105/132/44 106/133/59 88/113/60 23/34/17
f 88/113/60 120/149/61 121/150/18 23/34/17
f 133/162/30 134/163/62 90/115/63 25/36/31
f 90/115/63 152/183/64 153/184/51 25/36/31
s 4
f 92/118/65 93/119/66 32/45/13 58/76/16
s 6
f 28/41/40 161/192/56 162/193/67 96/123/68
f 140/170/69 141/171/37 28/41/40 96/123/68
f 30/43/24 129/158/23 130/159/70 98/125/71
f 112/140/72 113/141/47 30/43/24 98/125/71
s 4
f 93/119/66 94/120/73 44/59/74 32/45/13
f 44/59/74 68/88/75 69/89/14 32/45/13
s 3
f 157/188/54 158/189/76 46/62/77 34/48/33
f 46/62/77 144/174/78 145/175/34 34/48/33
f 125/154/10 126/155/79 48/64/80 36/50/11
f 48/64/80 100/127/81 101/128/41 36/50/11
s 2
f 77/99/6 78/100/82 50/67/83 38/53/7
f 50/67/83 84/108/84 85/109/57 38/53/7
s 1
f 109/136/46 110/137/85 52/69/86 40/55/1
f 52/69/86 116/145/87 117/146/2 40/55/1
f 137/166/26 138/167/88 54/71/89 42/57/27
f 54/71/89 148/179/90 149/180/49 42/57/27
s 4
f 27/40/91 44/59/74 94/120/73 95/122/92
f 67/87/93 68/88/75 44/59/74 27/40/91
s 3
f 20/29/94 46/62/77 158/189/76 159/190/95
f 143/173/96 144/174/78 46/62/77 20/29/94
f 13/20/97 48/64/80 126/155/79 127/156/98
f 99/126/99 100/127/81 48/64/80 13/20/97
s 2
f 21/31/100 50/67/83 78/100/82 79/102/101
f 83/107/102 84/108/84 50/67/83 21/31/100
s 1
f 16/24/103 52/69/86 110/137/85 111/139/104
f 115/144/105 116/145/87 52/69/86 16/24/103
f 17/26/106 54/71/89 138/167/88 139/169/107
f 147/178/108 148/179/90 54/71/89 17/26/106
s 3
f 56/73/36 146/176/35 131/160/109 19/28/110
f 155/186/111 156/187/53 56/73/36 19/28/110
s 4
f 58/76/16 70/90/15 71/91/112 26/37/113
f 91/116/114 92/118/65 58/76/16 26/37/113
s 1
f 60/78/28 150/181/50 151/182/115 18/27/116
f 135/164/117 136/165/25 60/78/28 18/27/116
f 62/80/4 118/147/3 119/148/118 15/22/119
f 107/134/120 108/135/45 62/80/4 15/22/119
s 2
f 64/82/8 86/110/58 87/111/121 22/32/122
f 75/96/123 76/98/5 64/82/8 22/32/122
s 3
f 66/85/12 102/129/42 103/130/124 14/21/125
f 123/152/126 124/153/9 66/85/12 14/21/125
s 4
f 7/14/127 45/60/128 68/88/75 67/87/93
f 69/89/14 68/88/75 45/60/128 33/46/129
f 70/90/15 69/89/14 33/46/129 57/74/130
f 71/91/112 70/90/15 57/74/130 8/13/131
s 5
f 72/93/32 154/185/52 155/186/132 19/28/133
f 131/160/134 132/161/29 72/93/32 19/28/133
f 74/95/20 122/151/19 123/152/135 14/21/136
f 103/130/137 104/131/43 74/95/20 14/21/136
s 2
f 65/84/138 76/98/5 75/96/123 6/15/139
f 37/52/140 77/99/6 76/98/5 65/84/138
f 49/66/141 78/100/82 77/99/6 37/52/140
f 79/102/101 78/100/82 49/66/141 5/16/142
s 6
f 13/20/143 80/103/21 114/142/48 99/126/144
f 127/156/145 128/157/22 80/103/21 13/20/143
f 20/29/146 82/105/39 142/172/38 143/173/147
f 159/190/148 160/191/55 82/105/39 20/29/146
s 2
f 3/18/149 51/68/150 84/108/84 83/107/102
f 85/109/57 84/108/84 51/68/150 39/54/151
f 86/110/58 85/109/57 39/54/151 63/81/152
f 87/111/121 86/110/58 63/81/152 4/3/153
s 5
f 15/22/154 88/113/60 106/133/59 107/134/155
f 119/148/156 120/149/61 88/113/60 15/22/154
f 18/27/157 90/115/63 134/163/62 135/164/158
f 151/182/159 152/183/64 90/115/63 18/27/157
s 4
f 59/77/160 92/118/65 91/116/114 2/11/161
f 31/44/162 93/119/66 92/118/65 59/77/160
f 43/58/163 94/120/73 93/119/66 31/44/162
f 95/122/92 94/120/73 43/58/163 1/19/164
s 6
f 96/123/68 162/193/67 147/177/165 17/25/166
f 139/168/167 140/170/69 96/123/68 17/25/166
f 98/125/71 130/159/70 115/143/168 16/23/169
f 111/138/170 112/140/72 98/125/71 16/23/169
s 3
f 5/6/171 49/65/172 100/127/81 99/126/99
f 101/128/41 100/127/81 49/65/172 37/51/173
f 102/129/42 101/128/41 37/51/173 65/83/174
f 103/130/124 102/129/42 65/83/174 6/5/175
s 5
f 75/97/176 104/131/43 103/130/137 6/5/177
f 22/33/178 105/132/44 104/131/43 75/97/176
f 87/112/179 106/133/59 105/132/44 22/33/178
f 107/134/155 106/133/59 87/112/179 4/3/180
s 1
f 63/81/181 108/135/45 107/134/120 4/3/182
f 39/54/183 109/136/46 108/135/45 63/81/181
f 51/68/184 110/137/85 109/136/46 39/54/183
f 111/139/104 110/137/85 51/68/184 3/18/185
s 6
f 83/106/186 112/140/72 111/138/170 3/4/187
f 21/30/188 113/141/47 112/140/72 83/106/186
f 79/101/189 114/142/48 113/141/47 21/30/188
f 99/126/144 114/142/48 79/101/189 5/6/190
s 1
f 9/17/191 53/70/192 116/145/87 115/144/105
f 117/146/2 116/145/87 53/70/192 41/56/193
f 118/147/3 117/146/2 41/56/193 61/79/194
f 119/148/118 118/147/3 61/79/194 10/2/195
s 5
f 10/2/196 89/114/197 120/149/61 119/148/156
f 121/150/18 120/149/61 89/114/197 24/35/198
f 122/151/19 121/150/18 24/35/198 73/94/199
f 123/152/135 122/151/19 73/94/199 11/7/200
s 3
f 55/72/201 124/153/9 123/152/126 11/7/202
f 35/49/203 125/154/10 124/153/9 55/72/201
f 47/63/204 126/155/79 125/154/10 35/49/203
f 127/156/98 126/155/79 47/63/204 12/8/205
s 6
f 12/8/206 81/104/207 128/157/22 127/156/145
f 129/158/23 128/157/22 81/104/207 29/42/208
f 130/159/70 129/158/23 29/42/208 97/124/209
f 115/143/168 130/159/70 97/124/209 9/1/210
s 5
f 73/94/199 132/161/29 131/160/134 11/7/200
f 24/35/198 133/162/30 132/161/29 73/94/199
f 89/114/197 134/163/62 133/162/30 24/35/198
f 135/164/158 134/163/62 89/114/197 10/2/196
s 1
f 61/79/194 136/165/25 135/164/117 10/2/195
f 41/56/193 137/166/26 136/165/25 61/79/194
f 53/70/192 138/167/88 137/166/26 41/56/193
f 139/169/107 138/167/88 53/70/192 9/17/191
s 6
f 97/124/209 140/170/69 139/168/167 9/1/210
f 29/42/208 141/171/37 140/170/69 97/124/209
f 81/104/207 142/172/38 141/171/37 29/42/208
f 143/173/147 142/172/38 81/104/207 12/8/206
s 3
f 12/8/205 47/63/204 144/174/78 143/173/96
f 145/175/34 144/174/78 47/63/204 35/49/203
f 146/176/35 145/175/34 35/49/203 55/72/201
f 131/160/109 146/176/35 55/72/201 11/7/202
s 1
f 1/19/211 43/58/212 148/179/90 147/178/108
f 149/180/49 148/179/90 43/58/212 31/44/213
f 150/181/50 149/180/49 31/44/213 59/77/214
f 151/182/115 150/181/50 59/77/214 2/11/215
s 5
f 2/11/216 91/117/217 152/183/64 151/182/159
f 153/184/51 152/183/64 91/117/217 26/38/218
f 154/185/52 153/184/51 26/38/218 71/92/219
f 155/186/132 154/185/52 71/92/219 8/10/220
s 3
f 57/75/221 156/187/53 155/186/111 8/10/222
f 33/47/223 157/188/54 156/187/53 57/75/221
f 45/61/224 158/189/76 157/188/54 33/47/223
f 159/190/95 158/189/76 45/61/224 7/9/225
s 6
f 7/9/226 67/86/227 160/191/55 159/190/148
f 161/192/56 160/191/55 67/86/227 27/39/228
f 162/193/67 161/192/56 27/39/228 95/121/229
f 147/177/165 162/193/67 95/121/229 1/12/230
